<svg width="544" height="235" viewBox="0 0 544 235" fill="none" xmlns="http://www.w3.org/2000/svg">
<path d="M312 10C312 4.47715 307.523 -2.29916e-07 302 0C296.477 2.29916e-07 292 4.47715 292 10L302 10L312 10ZM302 30L312 30L312 10L302 10L292 10L292 30L302 30Z" fill="black"/>
<path d="M369 10C369 4.47715 364.523 -9.85352e-08 359 0C353.477 9.85352e-08 349 4.47715 349 10L359 10L369 10ZM359 30L369 30L369 10L359 10L349 10L349 30L359 30Z" fill="black"/>
<path d="M426 10C426 4.47715 421.523 -9.85352e-08 416 0C410.477 9.85352e-08 406 4.47715 406 10L416 10L426 10ZM416 30L426 30L426 10L416 10L406 10L406 30L416 30Z" fill="black"/>
<path d="M483 10C483 4.47715 478.523 -9.85352e-08 473 0C467.477 9.85352e-08 463 4.47715 463 10L473 10L483 10ZM473 30L483 30L483 10L473 10L463 10L463 30L473 30Z" fill="black"/>
<path d="M292 225C292 230.523 296.477 235 302 235C307.523 235 312 230.523 312 225L302 225L292 225ZM302 225L312 225L312 205L302 205L292 205L292 225L302 225Z" fill="black"/>
<path d="M349 225C349 230.523 353.477 235 359 235C364.523 235 369 230.523 369 225L359 225L349 225ZM359 225L369 225L369 205L359 205L349 205L349 225L359 225Z" fill="black"/>
<path d="M406 225C406 230.523 410.477 235 416 235C421.523 235 426 230.523 426 225L416 225L406 225ZM416 225L426 225L426 205L416 205L406 205L406 225L416 225Z" fill="black"/>
<path d="M463 225C463 230.523 467.477 235 473 235C478.523 235 483 230.523 483 225L473 225L463 225ZM473 225L483 225L483 205L473 205L463 205L463 225L473 225Z" fill="black"/>
<path d="M242 47C236.477 47 232 51.4772 232 57C232 62.5228 236.477 67 242 67L242 57L242 47ZM242 57L242 67L262 67L262 57L262 47L242 47L242 57Z" fill="black"/>
<path d="M242 87C236.477 87 232 91.4772 232 97C232 102.523 236.477 107 242 107L242 97L242 87ZM242 97L242 107L262 107L262 97L262 87L242 87L242 97Z" fill="black"/>
<path d="M242 127C236.477 127 232 131.477 232 137C232 142.523 236.477 147 242 147L242 137L242 127ZM242 137L242 147L262 147L262 137L262 127L242 127L242 137Z" fill="black"/>
<path d="M242 167C236.477 167 232 171.477 232 177C232 182.523 236.477 187 242 187L242 177L242 167ZM242 177L242 187L262 187L262 177L262 167L242 167L242 177Z" fill="black"/>
<path d="M534 67C539.523 67 544 62.5228 544 57C544 51.4772 539.523 47 534 47L534 57L534 67ZM514 57L514 67L534 67L534 57L534 47L514 47L514 57Z" fill="black"/>
<path d="M534 107C539.523 107 544 102.523 544 97C544 91.4772 539.523 87 534 87L534 97L534 107ZM514 97L514 107L534 107L534 97L534 87L514 87L514 97Z" fill="black"/>
<path d="M534 147C539.523 147 544 142.523 544 137C544 131.477 539.523 127 534 127L534 137L534 147ZM514 137L514 147L534 147L534 137L534 127L514 127L514 137Z" fill="black"/>
<path d="M534 187C539.523 187 544 182.523 544 177C544 171.477 539.523 167 534 167L534 177L534 187ZM514 177L514 187L534 187L534 177L534 167L514 167L514 177Z" fill="black"/>
<rect x="271" y="40" width="234" height="155" rx="10" stroke="black" stroke-width="20"/>
<path d="M335.143 168H295.967V66.1818H334.745C345.219 66.1818 354.267 68.2202 361.89 72.2969C369.546 76.3404 375.446 82.1738 379.589 89.7969C383.765 97.3868 385.853 106.485 385.853 117.091C385.853 127.697 383.782 136.812 379.639 144.435C375.496 152.025 369.629 157.858 362.039 161.935C354.449 165.978 345.484 168 335.143 168ZM323.609 144.534H334.149C339.186 144.534 343.479 143.722 347.025 142.098C350.605 140.474 353.322 137.673 355.178 133.696C357.068 129.719 358.012 124.184 358.012 117.091C358.012 109.998 357.051 104.463 355.129 100.486C353.24 96.5085 350.455 93.7079 346.776 92.0838C343.131 90.4597 338.656 89.6477 333.353 89.6477H323.609V144.534ZM398.643 168V66.1818H442.79C450.546 66.1818 457.059 67.2259 462.329 69.3139C467.632 71.402 471.626 74.3518 474.31 78.1633C477.028 81.9749 478.387 86.4659 478.387 91.6364C478.387 95.3816 477.558 98.7954 475.901 101.878C474.277 104.96 471.99 107.545 469.04 109.634C466.09 111.688 462.644 113.114 458.699 113.909V114.903C463.074 115.069 467.052 116.179 470.631 118.234C474.211 120.256 477.061 123.057 479.182 126.636C481.304 130.183 482.364 134.359 482.364 139.165C482.364 144.733 480.906 149.688 477.989 154.03C475.106 158.372 470.996 161.786 465.66 164.271C460.323 166.757 453.96 168 446.569 168H398.643ZM426.285 145.926H439.211C443.851 145.926 447.331 145.064 449.651 143.341C451.971 141.584 453.131 138.999 453.131 135.585C453.131 133.199 452.584 131.177 451.491 129.52C450.397 127.863 448.839 126.603 446.817 125.741C444.829 124.88 442.426 124.449 439.608 124.449H426.285V145.926ZM426.285 107.347H437.62C440.039 107.347 442.177 106.965 444.033 106.203C445.889 105.441 447.331 104.347 448.358 102.922C449.419 101.464 449.949 99.6903 449.949 97.6023C449.949 94.4536 448.823 92.0507 446.569 90.3935C444.315 88.7031 441.465 87.858 438.018 87.858H426.285V107.347Z" fill="#0088FF"/>
<path d="M6.76953 168V66.1818H50.7184C58.2752 66.1818 64.8874 67.5573 70.555 70.3082C76.2227 73.0592 80.6308 77.0199 83.7795 82.1903C86.9281 87.3608 88.5025 93.5587 88.5025 100.784C88.5025 108.076 86.8784 114.224 83.6303 119.229C80.4154 124.233 75.8912 128.012 70.0579 130.564C64.2577 133.116 57.4798 134.392 49.7241 134.392H23.4741V112.915H44.1559C47.404 112.915 50.1715 112.517 52.4585 111.722C54.7785 110.893 56.5517 109.584 57.7781 107.794C59.0375 106.004 59.6673 103.668 59.6673 100.784C59.6673 97.8674 59.0375 95.4976 57.7781 93.6747C56.5517 91.8187 54.7785 90.4598 52.4585 89.598C50.1715 88.7031 47.404 88.2557 44.1559 88.2557H34.4116V168H6.76953ZM66.4286 121.267L91.8832 168H61.8548L36.9968 121.267H66.4286ZM100.683 168V91.6364H128.126V168H100.683ZM114.404 83.6818C110.692 83.6818 107.511 82.4555 104.859 80.0028C102.208 77.5502 100.882 74.6004 100.882 71.1534C100.882 67.7064 102.208 64.7566 104.859 62.304C107.511 59.8513 110.692 58.625 114.404 58.625C118.15 58.625 121.332 59.8513 123.95 62.304C126.601 64.7566 127.927 67.7064 127.927 71.1534C127.927 74.6004 126.601 77.5502 123.95 80.0028C121.332 82.4555 118.15 83.6818 114.404 83.6818ZM142.109 196.636V91.6364H169.353V104.96H169.95C170.944 102.375 172.402 100.005 174.325 97.8508C176.247 95.6633 178.633 93.9233 181.484 92.6307C184.334 91.3049 187.648 90.642 191.427 90.642C196.465 90.642 201.254 91.9844 205.795 94.669C210.369 97.3537 214.081 101.58 216.931 107.347C219.815 113.114 221.256 120.604 221.256 129.818C221.256 138.634 219.881 145.943 217.13 151.743C214.412 157.543 210.766 161.868 206.192 164.719C201.652 167.569 196.664 168.994 191.228 168.994C187.648 168.994 184.45 168.414 181.633 167.254C178.849 166.061 176.462 164.454 174.474 162.432C172.518 160.377 171.01 158.057 169.95 155.472H169.552V196.636H142.109ZM168.955 129.818C168.955 133.53 169.436 136.745 170.397 139.463C171.391 142.148 172.783 144.236 174.573 145.727C176.396 147.186 178.567 147.915 181.086 147.915C183.605 147.915 185.743 147.202 187.499 145.777C189.289 144.319 190.648 142.247 191.576 139.562C192.537 136.845 193.018 133.597 193.018 129.818C193.018 126.04 192.537 122.808 191.576 120.124C190.648 117.406 189.289 115.334 187.499 113.909C185.743 112.451 183.605 111.722 181.086 111.722C178.567 111.722 176.396 112.451 174.573 113.909C172.783 115.334 171.391 117.406 170.397 120.124C169.436 122.808 168.955 126.04 168.955 129.818Z" fill="#BB0000"/>
</svg>
